<svg width="76" height="79" viewBox="0 0 76 79" fill="none" xmlns="http://www.w3.org/2000/svg">
<path d="M56.1722 19.8313C51.0267 15.2822 48.0027 0 48.0027 0C48.0027 0 44.9733 15.3095 39.8332 19.8313C34.6931 24.3531 20 28 20 28C20 28 34.6876 31.6196 39.8332 36.1687C44.9788 40.7178 48.0027 56 48.0027 56C48.0027 56 51.0267 40.6905 56.1722 36.1687C61.3178 31.647 76 28 76 28C76 28 61.3124 24.3804 56.1722 19.8313Z" fill="#1D1D1C"/>
<path d="M14.8565 64.145C12.7431 62.2766 11.5011 56 11.5011 56C11.5011 56 10.2569 62.2878 8.14579 64.145C6.03467 66.0022 0 67.5 0 67.5C0 67.5 6.03242 68.9866 8.14579 70.855C10.2592 72.7234 11.5011 79 11.5011 79C11.5011 79 12.7431 72.7122 14.8565 70.855C16.9698 68.9979 23 67.5 23 67.5C23 67.5 16.9676 66.0134 14.8565 64.145Z" fill="#1D1D1C"/>
</svg>
