<svg width="1001" height="618" viewBox="0 0 1001 618" fill="none" xmlns="http://www.w3.org/2000/svg">
<path style="mix-blend-mode:screen" opacity="0.7" d="M1038.15 616.057C1028.63 621.242 1019.03 626.426 1009.34 631.611C1003.12 634.76 996.699 637.488 990.129 639.777C979.269 643.723 968.05 648.059 959.793 655.193C955.531 658.811 951.983 663.225 949.336 668.2C946.543 673.944 944.606 680.084 943.592 686.415C941.932 694.352 940.204 702.473 934.258 711.098C931.424 715.095 928.115 718.717 924.408 721.88H926.449C929.805 718.908 932.817 715.552 935.425 711.878C941.528 703.138 943.278 694.788 944.961 686.644C945.952 680.503 947.82 674.544 950.503 668.957C953.074 664.128 956.515 659.839 960.645 656.317C968.723 649.297 979.83 645.145 990.578 641.108C997.203 638.803 1003.67 636.052 1009.94 632.872C1019.44 627.81 1028.84 622.74 1038.15 617.663V616.057Z" fill="url(#paint0_linear_0_201)"/>
<path style="mix-blend-mode:screen" opacity="0.7" d="M1038.15 602.224L1030.85 605.895L1021.88 610.483C1010.32 616.195 1000.67 621.035 991.542 625.509C985.43 628.341 979.159 630.8 972.762 632.872C962.193 636.52 951.288 640.328 942.986 646.774C938.777 649.997 935.129 653.921 932.193 658.382C929.06 663.511 926.644 669.063 925.013 674.876C922.872 682.811 919.228 690.238 914.288 696.738C903.301 709.926 887.917 718.476 871.117 720.733C869.277 720.94 867.1 721.169 864.991 721.307C851.844 721.971 838.664 721.341 825.635 719.425C808.178 717.315 791.506 715.342 767.856 721.903H773.264C794.064 716.994 809.434 718.829 825.478 720.756C828.798 721.146 832.209 721.559 835.597 721.903H872.598C889.231 719.392 904.393 710.752 915.23 697.609C920.268 690.987 923.988 683.419 926.18 675.335C927.778 669.63 930.142 664.18 933.203 659.139C936.092 654.79 939.68 650.974 943.816 647.852C951.939 641.521 962.754 637.759 973.21 634.088C979.649 632.012 985.958 629.537 992.103 626.679C1001.26 622.251 1010.91 617.434 1022.48 611.607L1031.46 607.019L1038.19 603.647L1038.15 602.224Z" fill="url(#paint1_linear_0_201)"/>
<path style="mix-blend-mode:screen" opacity="0.7" d="M1038.15 589.24C1028.66 594.195 1018.94 598.714 1009.4 603.142L1003.52 605.849C994.437 610.093 984.699 614.52 973.749 619.383C967.802 621.887 961.727 624.062 955.552 625.898C945.253 629.179 934.617 632.574 926.247 638.332C922.05 641.152 918.272 644.574 915.028 648.495C911.521 653.056 908.589 658.05 906.3 663.36C903.327 670.335 899.249 676.76 894.228 682.377C882.797 694.263 867.973 702.135 851.887 704.858C850.07 705.134 847.983 705.455 846.009 705.684C833.443 707.018 820.808 707.547 808.178 707.267C788.253 707.152 769.427 707.038 738.979 716.443C733.257 718.21 727.76 720.045 722.374 721.834H726.638C730.789 720.458 735.007 719.081 739.36 717.728C769.607 708.345 788.343 708.552 808.155 708.552C820.845 708.851 833.54 708.33 846.166 706.992C848.163 706.762 850.249 706.441 852.089 706.143C868.5 703.366 883.625 695.333 895.283 683.203C900.385 677.486 904.525 670.943 907.534 663.841C909.79 658.634 912.669 653.734 916.105 649.252C919.241 645.432 922.899 642.094 926.965 639.341C935.178 633.698 945.746 630.326 955.956 627.068C962.166 625.207 968.277 623.018 974.265 620.508C985.237 615.759 994.976 611.332 1004.06 607.019L1009.94 604.289C1019.3 600.022 1028.86 595.549 1038.15 590.754V589.24Z" fill="url(#paint2_linear_0_201)"/>
<path style="mix-blend-mode:screen" opacity="0.7" d="M1038.15 575.086C1022.96 585.272 1005.72 592.613 988.985 599.701L985.148 601.33C976.509 605 966.951 608.923 955.978 613.282C950.481 615.576 944.535 617.181 938.252 618.994C928.245 621.884 917.923 624.866 909.486 629.867C905.348 632.329 901.501 635.269 898.02 638.63C894.047 642.65 890.518 647.105 887.497 651.913C883.794 657.811 879.376 663.207 874.348 667.971C862.46 678.525 848.107 685.763 832.681 688.984L831.918 689.145C830.257 689.466 828.642 689.787 827.049 690.062C812.396 692.586 800.594 694.008 789.173 695.361C767.449 697.65 745.883 701.297 724.596 706.281L722.689 706.74C690.423 714.264 664.933 720.206 631.859 711.328C620.64 708.277 609.286 702.955 597.394 697.334C590.034 693.847 582.338 690.246 574.776 687.309C559.082 681.011 542.249 678.226 525.412 679.143C500.73 680.496 486.594 690.498 471.561 701.073C462.167 708.228 451.976 714.219 441.202 718.921C438.543 720.006 435.814 720.903 433.034 721.605C432.496 721.743 431.957 721.834 431.396 721.949H436.647C438.307 721.444 439.99 720.848 441.673 720.183C452.575 715.427 462.886 709.367 472.391 702.129C487.223 691.645 501.224 681.758 525.547 680.427C542.191 679.51 558.833 682.256 574.35 688.479C581.934 691.484 589.541 695.086 596.788 698.55C608.793 704.193 620.101 709.538 631.522 712.544C664.933 721.513 690.535 715.526 722.98 707.955L724.888 707.52C746.13 702.561 767.652 698.953 789.33 696.715C800.751 695.338 812.576 693.939 827.273 691.393C828.866 691.117 830.504 690.796 832.164 690.452L832.927 690.315C848.6 687.049 863.179 679.691 875.246 668.957C880.39 664.107 884.913 658.611 888.709 652.601C891.662 647.869 895.116 643.484 899.008 639.525C902.402 636.227 906.168 633.355 910.227 630.968C918.507 626.059 928.761 623.077 938.678 620.21C944.714 618.466 950.975 616.677 956.517 614.474C967.534 610.093 977.093 606.193 985.686 602.5L989.501 600.871C1006.04 593.874 1023.05 586.648 1038.17 576.646L1038.15 575.086Z" fill="url(#paint3_linear_0_201)"/>
<path style="mix-blend-mode:screen" opacity="0.7" d="M1038.15 554.624C1033.51 559.797 1028.45 564.569 1023.05 568.892C1007.2 581.349 987.795 588.667 969.037 595.939L966.793 596.81C958.469 599.999 949.112 603.394 938.185 607.156C932.777 609.038 926.965 610.529 920.885 612.112C911.213 614.23 901.778 617.351 892.725 621.425C888.59 623.505 884.647 625.961 880.945 628.766C876.426 632.303 872.228 636.249 868.402 640.557C864.122 645.337 859.445 649.727 854.423 653.679C842.128 662.812 828.212 669.412 813.451 673.109L811.633 673.568L808.066 674.463C797.497 676.94 788.567 679.234 779.928 681.345C756.99 687.61 733.721 692.535 710.235 696.095C678.822 700.89 652.771 701.486 620.483 689.603C610.575 685.705 600.902 681.208 591.515 676.137C583.325 671.916 574.843 667.535 566.272 663.979C551.235 657.565 535.005 654.597 518.726 655.285C493.617 656.409 480.828 667.168 467.297 678.546C459.309 685.291 451.03 692.31 439.788 697.472C437.276 698.691 434.672 699.704 432.002 700.5C420.289 703.826 408.599 704.216 398.345 704.56C388.091 704.904 378.442 705.226 370.522 708.345C363.79 710.961 357.732 713.645 351.202 716.512C347.186 718.278 343.102 720.068 338.816 721.88H342.249C345.503 720.504 348.644 719.127 351.763 717.751C358.248 714.883 364.396 712.199 371.015 709.607C378.734 706.579 388.293 706.235 398.412 705.914C408.532 705.593 420.559 705.157 432.451 701.785C435.131 700.985 437.749 699.981 440.282 698.779C451.68 693.457 460.027 686.438 468.083 679.67C481.546 668.407 494.088 657.785 518.748 656.73C534.836 656.056 550.874 658.993 565.734 665.333C574.26 668.888 582.697 673.247 590.887 677.445C600.338 682.552 610.079 687.079 620.056 691.003C652.592 702.84 678.822 702.243 710.415 697.426C733.944 693.876 757.257 688.967 780.242 682.721C788.769 680.427 797.744 678.133 808.357 675.839L811.947 674.945L813.765 674.486C828.694 670.722 842.763 664.021 855.186 654.757C860.262 650.736 864.992 646.277 869.322 641.429C873.091 637.172 877.229 633.272 881.685 629.775C885.332 627.021 889.214 624.61 893.286 622.572C902.261 618.552 911.614 615.477 921.199 613.396C927.055 611.905 933.136 610.322 938.588 608.441C949.516 604.656 958.783 601.261 967.242 598.072L969.486 597.2C988.356 589.997 1007.86 582.542 1023.85 569.971C1028.95 565.882 1033.73 561.396 1038.15 556.551V554.624Z" fill="url(#paint4_linear_0_201)"/>
<path style="mix-blend-mode:screen" opacity="0.7" d="M1038.15 524.572C1036.2 526.413 1034.35 528.358 1032.6 530.399C1029.69 533.794 1026.86 537.762 1023.85 541.983C1022.1 544.415 1020.31 546.939 1018.47 549.393C1013.92 555.586 1008.7 561.228 1002.9 566.208C987.683 578.986 968.274 585.57 949.381 591.947L948.416 592.268C940.361 594.998 931.206 597.866 920.391 601.054C915.028 602.637 909.419 603.899 903.473 605.229C894.106 607.051 884.899 609.644 875.941 612.983C871.782 614.688 867.735 616.665 863.824 618.902C858.487 622.053 853.36 625.563 848.477 629.408C844.236 632.62 839.861 635.946 834.431 639.318C821.815 646.991 808.306 653.01 794.221 657.235L791.574 658.061L789.083 658.84C777.864 662.213 768.619 665.998 759.599 669.668C741.335 677.078 724.08 684.052 695.852 685.91C665.202 687.952 640.049 682.79 609.017 668.131C601.657 664.644 594.297 660.469 586.579 656.042C577.267 650.766 567.618 645.283 557.768 640.947C543.39 634.425 527.762 631.289 512.039 631.771C486.572 632.666 475.196 644.159 463.169 656.34C456.123 663.451 448.831 670.815 438.33 676.413C435.987 677.672 433.539 678.716 431.015 679.532C421.329 682.279 411.354 683.819 401.307 684.121C390.379 684.878 380.058 685.589 371.89 690.085C365.81 693.434 360.245 696.967 354.366 700.66C341.87 708.975 328.65 716.094 314.875 721.926H318.353C331.089 716.262 343.338 709.517 354.972 701.761C360.828 698.045 366.37 694.558 372.429 691.232C380.349 686.873 390.536 686.162 401.307 685.405C411.459 685.131 421.541 683.59 431.329 680.817C433.926 679.966 436.448 678.892 438.868 677.606C449.526 671.916 456.819 664.484 463.999 657.281C475.846 645.306 487.043 633.996 511.994 633.125C527.525 632.685 542.954 635.821 557.14 642.301C566.945 646.613 576.571 652.073 585.861 657.326C593.669 661.777 601.051 665.952 608.456 669.462C639.712 684.235 665.045 689.42 695.965 687.378C724.394 685.497 741.738 678.477 760.093 671.045C769.068 667.397 778.425 663.612 789.487 660.24L791.978 659.46L794.625 658.634C808.821 654.379 822.436 648.313 835.149 640.58C840.623 637.185 845.021 633.836 849.285 630.624C854.115 626.792 859.198 623.304 864.498 620.186C868.36 617.981 872.354 616.028 876.457 614.337C885.352 611.033 894.491 608.463 903.787 606.652C909.755 605.321 915.387 604.037 920.773 602.454C931.61 599.265 940.787 596.397 948.843 593.668L949.83 593.346C968.768 586.923 988.356 580.293 1003.68 567.355C1009.53 562.308 1014.8 556.598 1019.39 550.334C1021.25 547.856 1023.07 545.333 1024.8 542.878C1027.78 538.703 1030.61 534.757 1033.48 531.408C1035.03 529.596 1036.55 527.99 1037.97 526.545L1038.15 524.572Z" fill="url(#paint5_linear_0_201)"/>
<path style="mix-blend-mode:screen" opacity="0.7" d="M1038.15 492.708L1034.92 495.622C1029.41 500.339 1024.23 505.452 1019.43 510.923C1015.46 515.685 1011.85 520.763 1008.66 526.109C1006.98 528.862 1005.36 531.752 1003.64 534.826C1001.39 538.634 999.284 542.557 996.905 546.296C992.991 552.656 988.225 558.424 982.747 563.433C968.274 576.6 948.82 582.266 930.129 587.749C922.052 590.043 913.076 592.337 902.687 594.952C897.325 596.237 891.76 597.246 885.859 598.416C876.889 599.938 868.011 601.983 859.27 604.541C855.253 605.803 851.304 607.225 846.839 609.129C839.434 612.157 833.129 615.461 826.443 618.971C822.695 620.943 818.836 622.985 814.573 625.073C801.663 631.216 788.452 636.676 774.992 641.429L771.177 642.874L770.1 643.287C760.391 647.215 750.992 651.901 741.985 657.304C724.641 667.168 708.328 676.504 681.402 675.816C650.954 675.036 626.72 664.071 597.484 646.613C592.727 643.746 587.992 640.718 582.966 637.437C572.104 630.168 560.802 623.609 549.129 617.801C535.42 611.138 520.396 607.787 505.218 608.005C479.459 608.648 469.519 620.875 458.995 633.813C452.892 641.337 446.564 649.114 436.759 655.101C434.535 656.436 432.19 657.55 429.758 658.428C421.237 661.202 412.411 662.882 403.483 663.429C392.085 664.621 381.292 665.723 373.079 671.733C367.133 676.023 361.86 680.588 356.161 685.497C344.628 695.361 332.601 705.661 314.83 713.392C296.004 721.628 275.451 723.004 250.118 717.751C242.103 715.819 234.333 712.948 226.962 709.194C213.701 703.023 201.158 697.196 182.938 702.174C177.025 703.886 171.414 706.541 166.312 710.043L162.946 712.337C157.656 716.126 152.002 719.354 146.073 721.972H149.281C154.21 719.475 158.963 716.631 163.507 713.461L166.85 711.167C171.864 707.711 177.375 705.079 183.185 703.367C201.136 698.527 213.365 704.262 226.424 710.249C233.874 714.066 241.736 716.976 249.849 718.921C256.379 720.292 262.99 721.227 269.64 721.719H286.019C296.104 721.033 306.007 718.637 315.324 714.631C333.274 706.785 345.391 696.485 357.103 686.438C362.713 681.643 368.031 677.101 373.932 672.834C381.875 667.053 392.488 665.952 403.708 664.782C412.737 664.226 421.666 662.547 430.297 659.781C432.776 658.857 435.165 657.697 437.432 656.317C447.44 650.215 453.834 642.347 460.027 634.73C470.326 622.045 480.087 610.047 505.24 609.496C520.218 609.263 535.045 612.568 548.568 619.154C560.218 624.889 571.498 631.379 582.338 638.584C587.364 641.796 592.121 644.847 596.9 647.76C626.317 665.333 650.752 676.367 681.425 677.147C708.575 677.858 725.112 668.43 742.614 658.496C751.564 653.126 760.903 648.463 770.549 644.549L771.604 644.136C772.86 643.654 774.117 643.172 775.418 642.714C788.888 637.914 802.113 632.424 815.044 626.266C819.307 624.178 823.189 622.136 826.936 620.164C833.503 616.555 840.243 613.285 847.131 610.368C851.618 608.556 855.478 607.134 859.449 605.78C868.15 603.254 876.982 601.224 885.904 599.701C891.805 598.577 897.392 597.522 902.8 596.214C913.188 593.714 922.186 591.374 930.286 588.988C949.224 583.482 968.79 577.77 983.51 564.465C989.038 559.355 993.848 553.488 997.803 547.03C1000.23 543.222 1002.45 539.277 1004.53 535.56C1006.42 532.44 1008.06 529.55 1009.72 526.728C1012.9 521.443 1016.48 516.419 1020.42 511.703C1025.2 506.284 1030.34 501.217 1035.81 496.539L1038.06 494.429L1038.15 492.708Z" fill="url(#paint6_linear_0_201)"/>
<path style="mix-blend-mode:screen" opacity="0.7" d="M0.134653 663.383C3.05641 665.109 6.18707 666.435 9.44648 667.328C13.222 668.354 17.0834 669.014 20.9797 669.301C26.5444 669.737 32.1988 669.668 37.8083 669.599C45.3016 669.278 52.8079 669.608 60.2465 670.586C78.04 673.545 93.1857 683.157 109.88 694.558L111.136 695.407C118.487 700.885 126.449 705.452 134.853 709.011C152.041 715.526 162.901 707.382 174.389 698.756C176.184 697.38 178.024 696.026 179.887 694.696C184.549 691.195 189.795 688.591 195.369 687.011C212.332 682.423 223.686 689.305 235.758 696.348C242.969 701.045 250.775 704.712 258.959 707.244C283.82 714.126 303.835 712.91 321.786 703.643C337.739 695.453 348.711 683.272 359.123 671.526C364.284 665.768 369.601 659.804 375.39 654.505C383.244 647.256 394.104 645.742 405.615 644.113C413.682 643.334 421.621 641.515 429.242 638.699C431.602 637.703 433.857 636.465 435.973 635.006C445.353 628.468 450.805 620.141 456.168 612.066C464.941 598.692 473.221 586.029 498.553 585.707C512.987 585.695 527.215 589.194 540.064 595.916C554.806 603.234 568.471 613.419 581.664 623.283L585.456 626.082C611.058 645.099 635.247 663.062 667.042 666.938C693.07 670.15 708.866 658.313 725.583 645.788C733.723 639.264 742.489 633.599 751.746 628.881C753.249 628.17 754.775 627.481 756.233 626.793C768.327 621.563 781.858 616.677 794.939 611.951C806.876 607.638 817.781 603.784 829.965 600.481C834.565 599.265 838.716 598.187 842.665 597.384C850.945 595.549 859.628 594.218 868.02 592.934C873.944 592.016 879.531 591.167 885.006 590.135C895.821 588.139 904.37 586.35 911.932 584.515C928.626 580.5 949.381 575.499 963.539 561.758C968.735 556.555 973.063 550.519 976.352 543.888C979.179 538.451 981.557 532.693 983.846 527.141C984.519 525.52 985.192 523.914 985.865 522.324C988.357 516.101 991.251 510.055 994.527 504.224C998.347 497.687 1002.86 491.602 1007.99 486.078C1016.62 476.418 1026.81 468.354 1038.12 462.244V460.707C1026.46 466.942 1015.94 475.21 1007.05 485.138C1001.85 490.724 997.279 496.879 993.405 503.49C990.083 509.4 987.152 515.531 984.631 521.842C983.958 523.371 983.285 524.977 982.612 526.66C980.368 532.188 977.967 537.923 975.185 543.314C971.939 549.811 967.688 555.729 962.597 560.84C948.775 574.306 928.199 579.192 911.685 583.253C904.146 585.088 895.597 586.877 884.759 588.85C879.284 589.883 873.697 590.731 867.796 591.649C859.382 592.934 850.698 594.287 842.351 596.237C838.402 597.109 834.228 598.118 829.606 599.334C817.355 602.591 806.45 606.445 794.468 610.804C781.364 615.53 767.811 620.416 755.695 625.669C754.124 626.357 752.576 627.068 751.05 627.78C741.713 632.525 732.872 638.228 724.663 644.801C708.171 657.166 692.554 668.865 667.064 665.723C635.651 661.869 611.552 644.021 586.085 625.119L582.338 622.136C569.077 612.249 555.412 602.018 540.513 594.608C527.494 587.789 513.069 584.25 498.441 584.285C472.391 584.606 463.931 597.545 454.979 611.217C449.751 619.177 444.365 627.413 435.211 633.813C433.166 635.222 430.986 636.414 428.703 637.369C421.189 640.134 413.364 641.922 405.413 642.691C393.7 644.342 382.638 645.902 374.47 653.404C368.659 658.749 363.251 664.736 358.135 670.517C347.702 682.217 336.909 694.306 321.18 702.381C303.431 711.557 283.731 712.612 259.206 705.891C251.135 703.382 243.435 699.762 236.319 695.132C224.045 687.883 212.444 681.047 194.965 685.658C189.246 687.284 183.864 689.957 179.079 693.549C177.194 694.879 175.354 696.256 173.537 697.632C162.318 706.028 151.772 713.966 135.257 707.703C126.958 704.167 119.102 699.631 111.854 694.191L110.62 693.342C93.8588 681.872 78.5112 672.054 60.5157 669.141C52.9803 668.153 45.3768 667.815 37.7859 668.131C32.2661 668.131 26.5668 668.292 21.0694 667.833C17.2819 667.54 13.5274 666.903 9.85035 665.929C6.45457 664.976 3.2067 663.54 0.201965 661.662L0.134653 663.383Z" fill="url(#paint7_linear_0_201)"/>
<path style="mix-blend-mode:screen" opacity="0.7" d="M0.13504 644.48C6.32797 653.243 13.5979 660.286 24.1663 662.832C33.3659 665.126 42.9695 664.392 52.2589 663.704C59.3344 662.963 66.4601 662.863 73.5527 663.406C89.1024 665.057 103.238 672.926 116.926 680.519C127.359 686.392 138.062 692.379 149.641 695.751C166.626 700.706 176.073 692.494 186.08 683.822C192.363 678.386 198.87 672.742 207.486 670.54C223.597 666.411 234.053 674.073 245.137 682.171C251.869 687.172 259.027 692.333 267.957 695.43C292.415 703.895 311.016 703.023 328.271 692.631C342.25 684.212 351.853 670.379 361.12 657.005C365.966 649.727 371.21 642.735 376.827 636.061C384.523 627.344 396.012 625.302 407.118 623.306C416.789 621.586 426.819 619.796 434.515 613.671C443.266 606.789 447.821 597.889 452.197 589.355C459.713 574.719 466.221 562.079 491.71 561.987H491.957C523.146 561.987 550.835 583.413 573.812 604.381L578.95 609.106C600.962 629.317 623.826 650.215 652.435 656.707C677.476 662.373 692.509 648.059 708.53 632.918C716.069 625.738 723.855 618.305 732.831 613.19C762.449 596.26 806.72 591.144 845.627 586.648C862.882 584.652 879.172 582.771 893.555 580.018C913.593 576.21 931.162 571.989 943.413 559.051C953.757 548.109 957.818 533.06 961.767 518.493C963.611 511.07 965.897 503.769 968.611 496.631C983.555 459.606 1009 449.42 1038.17 446.346V444.97C1008.55 448.044 982.657 458.344 967.422 496.126C964.691 503.312 962.383 510.658 960.511 518.126C956.607 532.532 952.568 547.375 942.448 558.133C930.489 570.773 913.121 574.926 893.308 578.78C878.971 581.509 862.703 583.368 845.47 585.386C806.361 589.974 762.045 595.044 732.135 612.112C723.025 617.296 715.172 624.774 707.453 632.024C691.746 646.912 677.005 660.997 652.659 655.491C624.275 649.068 601.657 628.284 579.78 608.189L574.619 603.463C551.441 582.312 523.528 560.726 491.89 560.726H491.621C465.345 560.726 458.367 574.49 450.963 588.804C446.632 597.223 442.167 605.918 433.64 612.708C426.191 618.627 416.341 620.393 406.715 622.068C395.383 624.086 383.671 626.174 375.683 635.258C369.999 641.965 364.702 649.004 359.819 656.34C350.619 669.577 341.105 683.295 327.396 691.576C310.724 701.647 292.437 702.473 268.361 694.191C260.28 691.024 252.714 686.623 245.923 681.138C234.569 672.834 223.866 665.08 207.172 669.278C198.197 671.572 191.622 677.307 185.227 682.836C175.512 691.278 166.312 699.261 150 694.49C138.646 691.186 127.92 685.313 117.554 679.464C103.754 671.802 89.5063 663.864 73.7098 662.167C66.5348 661.623 59.3271 661.723 52.1691 662.465C42.9695 663.153 33.4782 663.842 24.4805 661.639C13.6653 658.978 6.41773 651.477 0.13504 642.209V644.48Z" fill="url(#paint8_linear_0_201)"/>
<path style="mix-blend-mode:screen" opacity="0.7" d="M0.134826 624.362C2.43665 627.026 4.95905 629.482 7.67401 631.702C12.8116 635.996 18.7517 639.172 25.131 641.039C34.1956 643.234 43.4818 644.327 52.7971 644.297C59.6726 644.359 66.5345 644.934 73.3281 646.017C87.5763 648.678 100.052 656.524 113.223 664.828C123.836 671.526 134.809 678.431 146.88 682.377C164.292 688.112 174.749 679.9 185.788 671.205C191.891 666.411 198.219 661.456 205.982 658.932C208.783 657.982 211.669 657.321 214.599 656.959C224.606 655.835 231.562 659.85 239.64 664.507C241.412 665.516 243.23 666.571 245.16 667.604C250.837 670.805 256.862 673.314 263.11 675.082C277.583 678.959 289.026 679.968 299.146 678.271C307.611 676.8 315.633 673.363 322.594 668.223C329.044 663.363 334.72 657.513 339.422 650.88C342.9 646.292 346.154 641.085 349.452 636.13C355.443 626.954 361.658 617.365 369.243 609.726C377.836 601.054 389.818 600.091 401.441 599.15C410.551 598.439 419.167 597.728 426.123 593.553C434.538 588.483 439.294 581.395 443.917 574.536C451.86 562.676 459.377 551.595 484.485 550.036C486.998 549.898 489.601 549.852 492.181 549.898C521.485 550.471 547.2 568.25 568.471 585.524C571.231 587.818 573.991 590.112 576.773 592.406L581.104 596.008C600.49 612.066 622.457 630.28 649.764 635.946C673.661 640.878 688.358 627.665 703.908 613.901C711.032 607.033 718.89 601.008 727.333 595.939C756.503 580.018 799.494 575.109 837.28 570.705C852.987 568.915 867.998 567.195 881.371 564.832C897.078 562.033 916.397 558.546 929.321 546.044C930.04 545.333 930.758 544.599 931.431 543.75C940.137 534.115 944.265 521.475 948.259 509.34C950.293 502.767 952.691 496.319 955.44 490.024C962.687 474.241 972.38 463.001 985.035 455.614C1000.61 446.438 1018.69 444.144 1038.15 443.135V441.85C1019.05 442.951 1000 445.337 984.295 454.513C971.393 462.014 961.52 473.461 954.161 489.519C951.391 495.86 948.993 502.363 946.98 508.996C943.121 521.062 939.105 533.61 930.511 542.993C929.86 543.704 929.164 544.415 928.446 545.126C915.836 557.33 896.629 560.772 881.192 563.478C867.863 565.772 852.964 567.539 837.168 569.351C799.225 573.687 756.234 578.527 726.705 594.585C718.17 599.692 710.228 605.772 703.033 612.708C687.73 626.472 673.28 639.273 650.011 634.455C623.085 628.835 601.186 610.758 581.911 594.792L577.581 591.19C574.799 588.866 572.031 586.572 569.279 584.308C547.828 566.874 521.912 548.957 492.204 548.384C489.578 548.384 486.953 548.384 484.418 548.544C458.659 550.036 450.603 562.01 442.817 573.595C438.33 580.339 433.618 587.359 425.45 592.222C418.719 596.26 410.304 596.948 401.329 597.659C389.482 598.6 377.23 599.586 368.323 608.602C360.626 616.332 354.389 625.944 348.353 635.212C345.144 640.167 341.823 645.26 338.39 649.894C333.76 656.419 328.175 662.175 321.831 666.961C315.032 671.991 307.194 675.358 298.921 676.803C289.004 678.454 277.74 677.445 263.447 673.614C257.301 671.918 251.368 669.501 245.765 666.411C243.858 665.378 242.063 664.346 240.29 663.314C232.011 658.565 224.875 654.459 214.442 655.629C211.429 655.997 208.459 656.673 205.579 657.648C197.68 660.24 191.286 665.287 185.093 670.15C174.3 678.615 164.135 686.598 147.374 681.092C135.527 677.193 124.622 670.334 114.076 663.681C101.376 655.675 88.227 647.416 73.687 644.686C66.8258 643.599 59.897 643.017 52.9542 642.943C43.7149 642.986 34.5032 641.908 25.5124 639.731C19.2978 637.889 13.5175 634.766 8.52668 630.555C5.49609 628.052 2.70147 625.264 0.179609 622.228L0.134826 624.362Z" fill="url(#paint9_linear_0_201)"/>
<path style="mix-blend-mode:screen" opacity="0.7" d="M0.134572 604.473C2.69216 606.693 5.40711 608.718 8.25717 610.529C13.8555 614.176 19.8882 617.075 26.2077 619.154C34.9105 621.732 43.8024 623.589 52.7969 624.706C59.6551 625.589 66.4576 626.875 73.1708 628.56C86.1849 632.161 97.5835 640.259 109.678 648.862C120.403 656.501 131.532 664.392 144.03 669.003C162.116 675.656 173.784 667.237 186.125 658.336C191.713 653.946 197.792 650.25 204.232 647.325C206.905 646.205 209.649 645.27 212.444 644.526C221.554 642.232 227.343 644.526 234.703 647.485C236.453 648.196 238.271 648.908 240.223 649.619C246.063 651.813 252.065 653.524 258.173 654.734C269.392 656.845 282.496 658.611 294.411 655.675C302.715 653.614 310.412 649.538 316.849 643.792C322.815 638.448 327.985 632.242 332.197 625.371C334.441 621.861 336.684 618.26 338.928 614.429C345.548 603.303 352.391 591.787 361.658 583.459C371.329 574.788 383.984 575.132 396.213 575.476C404.134 575.683 411.628 575.889 417.686 573.526C426.056 570.246 430.947 564.924 436.13 559.303C444.433 550.265 453.026 540.951 477.282 538.198C479.75 537.9 482.353 537.671 484.978 537.51C515.404 535.469 541.545 551.274 563.108 566.759C566.608 569.282 570.041 571.875 573.654 574.627L578.142 578.068C599.009 593.874 620.617 610.185 646.937 615.186C669.846 619.407 684.072 607.478 699.24 594.861C706.196 588.644 713.778 583.199 721.858 578.619C750.848 563.593 792.516 558.845 829.157 554.83C843.428 553.224 856.913 551.733 869.142 549.714C884.063 547.237 902.62 544.117 915.208 533.129C915.926 532.509 916.599 531.844 917.272 531.202C925.933 522.576 930.421 511.267 934.774 500.324C936.929 494.577 939.394 488.956 942.156 483.486C948.604 470.481 958.781 459.797 971.325 452.861C988.693 443.479 1010.1 441.942 1030.81 440.451L1037.99 439.923V438.569L1030.72 439.097C1009.87 440.611 988.334 442.148 970.72 451.668C957.971 458.725 947.642 469.605 941.124 482.844C938.336 488.361 935.842 494.028 933.652 499.82C929.366 510.624 924.923 521.819 916.464 530.238C915.813 530.881 915.14 531.5 914.445 532.119C902.171 542.855 883.794 545.883 869.052 548.407C856.846 550.403 843.383 551.963 829.157 553.5C792.269 557.606 750.489 562.286 721.297 577.426C713.121 582.038 705.455 587.537 698.433 593.828C683.511 606.239 669.42 617.961 647.251 613.763C621.245 608.854 599.772 592.612 579.017 576.898L574.529 573.435C570.894 570.682 567.461 568.089 563.961 565.566C542.218 549.829 515.786 534 484.978 536.065C482.331 536.249 479.728 536.478 477.237 536.753C452.555 539.552 443.333 549.508 435.255 558.294C430.184 563.8 425.383 569.007 417.305 572.173C411.493 574.467 404.134 574.26 396.348 574.031C384.433 573.71 370.948 573.343 360.895 582.358C351.224 590.823 344.493 602.431 337.762 613.649C335.518 617.457 333.274 621.035 331.03 624.522C326.915 631.318 321.851 637.462 315.997 642.76C309.731 648.357 302.244 652.337 294.164 654.367C282.496 657.235 269.482 655.491 258.465 653.427C252.431 652.212 246.503 650.501 240.739 648.311C238.787 647.623 236.969 646.912 235.242 646.224C227.972 643.333 221.779 640.833 212.198 643.195C209.341 643.941 206.537 644.884 203.806 646.017C197.265 648.967 191.096 652.711 185.429 657.166C173.38 665.86 162.003 674.073 144.547 667.673C132.206 663.085 121.166 655.262 110.485 647.692C98.3015 639.02 86.8132 630.854 73.5747 627.206C66.8209 625.489 59.9724 624.186 53.0662 623.306C44.0737 622.199 35.1822 620.358 26.4769 617.801C20.3062 615.745 14.4172 612.893 8.95275 609.313C5.84393 607.332 2.89514 605.099 0.134572 602.637V604.473Z" fill="url(#paint10_linear_0_201)"/>
<path style="mix-blend-mode:screen" opacity="0.7" d="M0.134826 584.836C2.6479 586.258 5.43026 587.703 8.8633 589.424L10.9051 590.387C16.173 592.959 21.5651 595.256 27.0606 597.269C35.1832 600.183 43.3058 602.362 51.1816 604.495C59.0574 606.629 66.3947 608.579 73.0588 611.079C84.8838 615.53 95.2501 623.834 106.222 632.62C117.195 641.406 128.279 650.284 141.338 655.56C160.411 663.337 174.21 653.977 187.561 644.916C192.398 641.519 197.45 638.454 202.684 635.74C205.354 634.432 208.114 633.102 210.515 632.115C219.131 628.605 223.866 629.477 231.046 630.831L235.534 631.657C236.79 631.84 238.114 632.069 239.505 632.322C243.589 633.033 248.233 633.836 253.462 634.409C265.69 635.763 278.592 636.703 289.946 633.102C298.035 630.384 305.337 625.655 311.195 619.338C316.611 613.406 321.243 606.773 324.972 599.609C326.251 597.315 327.552 594.838 328.854 592.36C335.81 579.261 343.012 565.727 353.962 556.986C364.912 548.246 379.048 550.311 391.456 552.169C397.266 553.359 403.207 553.729 409.115 553.27C418.09 551.825 423.341 547.879 429.489 543.314C437.971 537.028 447.552 529.894 469.878 526.109C472.436 525.673 475.016 525.26 477.574 524.87C509.391 520.053 537.035 534.574 557.566 547.81C561.762 550.494 565.913 553.339 570.311 556.367L571.343 557.078L577.199 561.139C597.641 575.339 618.777 589.997 644.245 594.356C665.875 598.049 679.854 587.313 694.641 576.004C701.407 570.438 708.698 565.574 716.406 561.483C745.037 547.443 785.381 543.131 820.968 539.139C833.825 537.74 845.941 536.409 857.115 534.712C871.319 532.555 888.978 529.871 901.251 520.305C901.969 519.755 902.643 519.204 903.293 518.631C911.909 511.037 916.756 501.058 921.513 491.401C923.757 486.606 926.247 481.674 929.097 477.04C935.983 465.438 945.993 456.112 957.93 450.177C973.637 442.423 992.53 440.519 1010.79 438.707C1019.9 437.789 1029.19 436.826 1038.15 435.174V433.798C1029.17 435.473 1019.81 436.436 1010.68 437.354C992.283 439.212 973.255 441.139 957.347 448.984C945.159 454.981 934.927 464.453 927.885 476.26C925.093 480.951 922.532 485.782 920.212 490.735C915.343 500.691 910.743 510.12 902.261 517.529C901.61 518.103 900.96 518.63 900.287 519.158C888.282 528.541 870.78 531.179 856.734 533.312C845.515 535.01 833.488 536.317 820.653 537.74C784.954 541.639 744.498 546.067 715.643 560.198C707.863 564.327 700.504 569.237 693.676 574.857C679.114 586.052 665.359 596.604 644.312 593.025C619.271 588.667 599.189 574.719 577.85 559.946C575.943 558.615 574.036 557.285 572.106 555.977L571.074 555.243C566.586 552.215 562.502 549.37 558.284 546.663C537.574 533.358 509.638 518.699 477.507 523.586L469.788 524.824C447.081 528.678 436.916 536.294 428.771 542.282C422.758 546.732 417.552 550.586 408.936 551.985C403.169 552.431 397.37 552.06 391.703 550.884C379.026 548.98 364.777 546.847 353.199 555.977C341.621 565.107 334.755 578.55 327.732 591.764C326.431 594.241 325.151 596.65 323.85 598.99C320.233 606.053 315.705 612.589 310.387 618.42C304.679 624.57 297.561 629.166 289.677 631.794C278.57 635.373 265.825 634.386 253.776 633.056C248.593 632.482 243.97 631.679 239.909 630.968C238.495 630.739 237.171 630.487 235.915 630.303L231.427 629.477C224.292 628.147 219.154 627.183 210.156 630.854C207.71 631.84 204.95 633.148 202.258 634.501C196.953 637.267 191.84 640.402 186.955 643.884C173.29 653.06 160.388 661.892 141.944 654.367C129.087 649.137 117.935 640.213 107.187 631.588C96.4393 622.962 85.6691 614.36 73.6423 609.84C66.9108 607.317 59.5061 605.252 51.6528 603.211C43.7994 601.169 35.6993 598.921 27.6216 596.03C21.6755 593.874 16.4025 591.328 11.6007 589.148L9.53642 588.185C5.85656 586.419 2.80496 584.905 0.269449 583.368L0.134826 584.836Z" fill="url(#paint11_linear_0_201)"/>
<path style="mix-blend-mode:screen" opacity="0.7" d="M0.134908 565.474C2.73773 566.14 5.67714 566.897 9.46919 568.135C13.2612 569.374 17.2552 571.003 21.5633 572.723L28.1153 575.43C32.4683 577.151 36.8213 578.825 41.1294 580.477C52.8646 585.065 63.949 589.217 72.9916 593.645C83.6273 598.852 92.984 607.271 102.879 616.172C113.762 625.99 125.026 636.153 138.646 642.255C159.266 651.431 175.197 640.993 190.612 630.785C194.068 628.491 197.636 626.197 201.181 624.086C202.909 623.1 204.479 622.136 205.938 621.219L208.608 619.613C217.763 614.153 221.398 613.993 230.171 613.626H230.934C234.322 613.488 238.338 613.626 242.983 613.855L248.75 614.061H249.109C261.562 614.474 274.441 614.887 285.459 610.483C293.407 607.208 300.372 601.852 305.653 594.952C310.558 588.525 314.673 581.507 317.904 574.054L319.542 570.498C326.274 556.046 333.79 539.667 346.468 530.697C359.145 521.727 374.897 526.315 387.507 530.009C391.772 531.435 396.149 532.486 400.589 533.152C411.314 534.138 417.215 531.339 426.146 527.072C437.784 521.27 450.075 516.948 462.742 514.203L470.416 512.414C496.22 506.358 521.463 511.45 552.293 528.931C556.781 531.523 561.268 534.299 566.654 537.648C569.772 539.598 572.847 541.571 575.921 543.544C596.878 557.009 616.691 569.695 641.507 573.48C661.993 576.6 675.636 567.011 690.086 556.872C696.648 551.973 703.624 547.682 710.931 544.048C739.562 530.904 779.031 526.728 813.832 523.035C824.827 521.865 835.216 520.741 844.954 519.433C859.18 517.552 875.29 515.258 887.205 507.206L889.202 505.784C897.818 499.2 903.091 490.575 908.207 482.202C910.608 478.256 913.099 474.195 915.926 470.342C923.231 460.195 933.042 452.215 944.355 447.218C958.267 441.047 974.647 438.914 990.488 436.872C1005.01 434.991 1019.99 433.064 1033.12 427.994C1034.86 427.323 1036.56 426.557 1038.21 425.7V424.163C1036.42 425.155 1034.56 426.028 1032.65 426.778C1019.75 431.779 1004.83 433.66 990.398 435.587C974.445 437.652 957.975 439.785 943.906 446.025C932.353 451.081 922.33 459.198 914.871 469.539C912.022 473.416 909.509 477.522 907.085 481.49C901.812 490.024 896.831 498.283 888.394 504.706C887.789 505.165 887.138 505.646 886.465 506.082C874.819 513.997 858.866 516.176 844.797 518.103C835.059 519.433 824.603 520.535 813.698 521.682C778.784 525.398 739.225 529.596 710.482 542.832C703.1 546.489 696.056 550.819 689.435 555.771C675.209 565.75 661.769 575.178 641.799 572.15C617.117 568.411 597.551 555.771 576.728 542.328L567.461 536.432C562.099 533.083 557.633 530.307 553.056 527.692C521.912 510.028 496.377 504.889 470.237 511.037L462.563 512.827C449.8 515.581 437.418 519.934 425.697 525.788C416.946 529.94 411.18 532.67 400.813 531.729C396.421 531.075 392.091 530.047 387.866 528.655C374.987 524.87 358.943 520.168 345.727 529.504C332.511 538.841 325.062 555.266 318.33 569.856L316.692 573.389C313.509 580.749 309.455 587.683 304.621 594.035C299.503 600.76 292.737 605.983 285.01 609.175C274.239 613.488 261.495 613.075 249.109 612.662H248.75L243.006 612.433C238.316 612.226 234.277 612.066 230.822 612.226H230.059C221.308 612.616 217.314 612.777 207.867 618.397L205.197 620.026C203.739 620.921 202.168 621.884 200.463 622.87C196.895 624.958 193.305 627.321 189.827 629.615C174.704 639.594 159.087 649.917 139.117 640.947C125.654 634.914 114.435 624.889 103.687 615.094C93.702 606.124 84.3004 597.636 73.4853 592.36C64.51 587.91 53.2909 583.643 41.5109 579.147C37.2252 577.495 32.8722 575.82 28.5192 574.1L22.0794 571.485C17.7489 569.695 13.6651 567.998 9.89552 566.897C6.12591 565.795 2.84995 564.832 0.157368 564.144L0.134908 565.474Z" fill="url(#paint12_linear_0_201)"/>
<path style="mix-blend-mode:screen" opacity="0.7" d="M0.134908 546.457C3.45265 546.122 6.8003 546.276 10.075 546.916C16.5922 548.434 22.9331 550.656 28.9904 553.545C44.0465 560.076 58.6567 567.632 72.7224 576.164C82.2361 582.037 90.5607 590.479 99.3789 599.426C110.284 610.46 121.57 621.884 135.774 628.881C159.064 640.351 178.855 626.587 196.357 614.658L199.52 612.502C202.168 610.689 204.457 608.877 206.521 607.179L208.182 605.826C215.541 599.793 218.009 597.751 226.132 595.572C231.958 594.349 237.888 593.719 243.836 593.691L247.359 593.553C258.914 593.117 270.829 592.658 280.791 587.887C288.57 583.99 295.152 577.983 299.819 570.521C304.171 563.579 307.768 556.171 310.544 548.43C316.603 532.853 324.142 513.469 338.727 504.339C353.312 495.209 371.038 503.284 383.805 509.294C386.812 510.693 389.661 512.047 392.04 512.941C406.512 518.355 413.558 515.947 430.566 510.166C437.028 507.872 445.039 505.234 455.473 502.251C458.165 501.471 460.678 500.714 463.169 499.957C489.938 491.401 515.764 494.543 546.908 510.097C551.553 512.391 556.242 515.029 561.852 518.218C566.07 520.649 570.289 523.15 574.372 525.581C594.993 537.854 614.469 549.462 638.77 552.697C658.112 555.266 671.44 546.847 685.553 537.923C691.889 533.648 698.552 529.904 705.478 526.728C734.469 514.364 773.466 510.395 807.886 506.908C816.637 506.013 824.894 505.188 832.815 504.247C846.278 502.618 861.648 500.783 873.204 494.199C873.877 493.832 874.528 493.442 875.156 493.029C883.817 487.501 889.539 480.183 895.081 473.117C897.527 470.02 900.04 466.809 902.8 463.735C910.527 455.113 920.137 448.479 930.847 444.373C942.829 439.671 956.606 437.491 969.957 435.427C985.26 433.133 1001.1 430.54 1014.27 424.209C1024.37 419.346 1031.91 411.363 1038.21 401.59V399.158C1031.82 409.527 1024.12 417.969 1013.71 422.993C1000.72 429.256 984.968 431.71 969.755 434.096C956.292 436.184 942.47 438.363 930.376 443.112C919.476 447.288 909.696 454.041 901.835 462.817C899.052 465.914 896.517 469.149 894.049 472.269C888.327 479.586 882.83 486.468 874.46 491.882C873.832 492.272 873.204 492.662 872.553 493.029C861.334 499.476 846.772 501.219 832.725 502.894C824.827 503.857 816.57 504.683 807.819 505.578C773.309 509.065 734.222 513.033 705.03 525.49C698.015 528.669 691.261 532.42 684.835 536.707C670.946 545.493 657.91 553.798 638.927 551.297C614.873 548.086 595.509 536.57 575.001 524.343C570.917 521.911 566.698 519.411 562.48 516.979C556.848 513.767 552.136 511.152 547.469 508.812C516.056 493.098 489.87 489.932 462.742 498.604C460.274 499.384 457.784 500.141 455.114 500.898C444.635 503.903 436.602 506.633 430.14 508.835C412.93 514.685 406.512 516.864 392.466 511.634C390.222 510.739 387.305 509.34 384.321 508.009C371.307 501.884 353.469 493.488 338.009 503.146C323.042 512.506 315.413 532.119 309.288 547.879C306.56 555.533 303.016 562.857 298.72 569.718C294.173 576.975 287.772 582.821 280.208 586.625C270.492 591.213 258.69 591.718 247.291 592.154L243.768 592.291C237.737 592.329 231.725 592.974 225.818 594.218C217.404 596.512 214.599 598.806 207.351 604.725L205.691 606.078C203.649 607.753 201.405 609.542 198.78 611.332L195.616 613.488C178.451 625.325 158.975 638.722 136.379 627.619C122.356 620.783 111.136 609.313 100.321 598.462C91.346 589.47 83.0439 580.959 73.3955 575.017C59.2849 566.441 44.6215 558.854 29.5064 552.307C23.3501 549.39 16.9129 547.137 10.2994 545.585C6.94858 544.951 3.5287 544.789 0.134908 545.103V546.457Z" fill="url(#paint13_linear_0_201)"/>
<path style="mix-blend-mode:screen" opacity="0.7" d="M0.134428 527.807C3.40991 526.176 7.04528 525.448 10.6804 525.696C17.2323 526.04 24.4125 529.068 29.9548 531.684C45.0407 539.152 59.328 548.201 72.5873 558.684C80.9343 565.084 88.2939 573.457 96.0351 582.312C106.918 594.723 118.182 607.547 133.036 615.507C157.852 628.789 181.951 613.511 197.904 600.871C200.271 599.009 202.478 596.945 204.501 594.7C207.082 591.878 208.989 589.493 210.537 587.382C213.27 583.182 217.019 579.776 221.42 577.495C227.033 575.146 232.981 573.744 239.034 573.343L244.912 572.7C255.817 571.576 267.081 570.406 276.214 565.268C283.871 560.766 290.102 554.109 294.164 546.09C297.986 538.674 301.061 530.88 303.341 522.829C309.265 504.224 316.804 485.941 331.142 477.981C348.801 468.254 368.704 482.248 380.506 490.621L383.49 492.708C402.855 505.991 410.663 503.284 448.18 490.414C450.738 489.52 453.318 488.556 455.853 487.547C483.609 476.26 510.042 477.453 541.522 491.217C546.997 493.511 552.45 496.379 557.05 498.764C562.322 501.494 567.551 504.408 572.599 507.206C592.928 518.493 612.135 529.16 636.032 531.867C654.139 533.932 667.311 526.728 681.065 518.929C687.147 515.345 693.459 512.188 699.958 509.477C730.093 497.732 769.516 494.016 804.206 490.712C809.815 490.185 815.313 489.68 820.608 489.13H821.259C834.475 487.73 848.095 486.354 859.067 481.307L860.974 480.366C868.785 476.082 875.906 470.596 882.089 464.102C884.467 461.808 886.913 459.514 889.538 457.22C897.67 450.209 907.07 444.901 917.204 441.598C927.499 438.454 937.996 436.047 948.618 434.394C965.02 431.458 981.961 428.407 995.267 420.493C1013.22 409.871 1020.73 388.652 1028.72 366.193C1031.59 358.141 1034.53 349.906 1038.03 341.992V338.757C1034 347.543 1030.7 356.765 1027.49 365.735C1019.57 387.964 1012.1 408.931 994.616 419.346C981.512 427.122 964.661 430.151 948.393 433.11C937.672 434.766 927.078 437.189 916.688 440.359C906.391 443.719 896.839 449.112 888.573 456.233C885.926 458.527 883.457 460.821 881.079 463.115C874.982 469.525 867.959 474.94 860.256 479.174L858.416 480.068C847.624 485.023 834.116 486.4 821.057 487.73H820.406L804.004 489.313C769.202 492.594 729.734 496.333 699.42 508.17C692.866 510.891 686.502 514.064 680.37 517.667C666.75 525.283 653.893 532.463 636.054 530.445C612.427 527.784 593.422 517.185 573.115 505.968C568.044 503.146 562.816 500.233 557.521 497.48C552.921 495.186 547.446 492.318 541.814 489.91C509.997 475.985 483.273 474.815 455.203 486.101C452.69 487.111 450.132 488.074 447.574 488.946C410.573 501.77 402.877 504.431 384.029 491.515L381.067 489.451C368.928 480.894 348.621 466.511 330.245 476.742C315.413 484.909 307.806 503.49 301.816 522.324C299.588 530.261 296.581 537.946 292.84 545.264C288.895 553.058 282.854 559.537 275.428 563.937C266.453 568.938 255.391 570.085 244.621 571.209C242.646 571.416 240.671 571.599 238.742 571.829C232.535 572.257 226.435 573.706 220.679 576.119C216.086 578.479 212.174 582.021 209.325 586.396C207.732 588.483 205.937 590.846 203.379 593.622C201.391 595.803 199.238 597.82 196.94 599.655C181.233 612.066 157.628 627.183 133.484 614.13C118.855 606.308 107.681 593.484 96.8654 581.257C89.0569 572.333 81.6747 563.937 73.2155 557.445C59.8842 546.905 45.5221 537.803 30.3586 530.284C24.7267 527.646 17.3894 524.549 10.6131 524.182C6.96788 523.932 3.31934 524.618 -0.000195161 526.178L0.134428 527.807Z" fill="url(#paint14_linear_0_201)"/>
<path style="mix-blend-mode:screen" opacity="0.7" d="M0.134826 509.592C3.16637 506.583 7.1392 504.763 11.3539 504.453C16.8288 504.109 23.0666 505.807 30.9873 509.799C46.335 517.552 61.2115 530.651 72.453 541.204C79.7639 548.517 86.5151 556.393 92.6473 564.763C103.485 578.688 114.682 593.071 130.231 602.11C153.612 615.713 179.595 604.404 196.289 589.263C198.597 587.159 200.667 584.797 202.46 582.221C204.748 578.844 206.695 575.24 208.271 571.462C209.91 566.735 212.79 562.56 216.596 559.395C221.263 555.793 228.062 554.119 234.12 552.972C236.633 552.49 239.213 552.077 241.839 551.641C252.25 549.944 262.998 548.177 271.524 542.672C278.57 538.084 283.91 531.454 288.331 521.659C291.559 513.852 294.105 505.769 295.937 497.503V497.204C299.909 481.399 307.156 459.468 323.334 451.622C337.807 444.74 354.747 451.462 374.942 472.452C393.857 492.02 405.076 493.006 440.977 478.348C443.49 477.315 446.071 476.054 448.629 474.93C477.305 461.165 504.275 460.248 536.138 472.337C540.737 474.081 545.853 476.306 552.226 479.219C558.598 482.133 564.679 485.39 570.647 488.395C590.842 498.833 609.735 508.674 633.295 510.877C650.46 512.46 663.25 506.289 676.78 499.774C682.556 496.92 688.481 494.392 694.529 492.203C727.692 480.55 771.312 477.017 806.36 474.172L810.511 473.828C822.381 472.865 834.677 471.878 844.976 468.323L846.839 467.657C854.978 464.374 862.7 460.099 869.838 454.926C871.947 453.526 874.079 452.104 876.3 450.682C884.786 445.357 893.996 441.345 903.63 438.776C910.877 436.78 918.843 435.22 926.517 433.729C944.467 430.242 963.046 426.618 976.554 416.753C991.722 405.65 997.152 386.495 1002.92 366.285C1006.55 353.439 1010.35 340.133 1016.81 328.273C1019.83 322.925 1023.19 317.783 1026.86 312.88L1028 311.298C1031.89 306.038 1035.29 300.416 1038.15 294.505V291.156C1035.19 298.015 1031.42 304.478 1026.93 310.403L1025.81 311.986C1022.1 316.934 1018.71 322.122 1015.66 327.516C1009.11 339.537 1005.32 352.888 1001.64 365.826C995.963 385.853 990.578 404.824 975.791 415.606C962.53 425.31 944.086 428.889 926.27 432.376C918.551 433.867 910.563 435.427 903.293 437.445C893.532 440.037 884.2 444.096 875.605 449.489C873.361 450.911 871.117 452.356 869.12 453.756C862.056 458.87 854.417 463.098 846.368 466.35C845.784 466.579 845.178 466.809 844.55 467.015C834.408 470.502 822.112 471.603 810.399 472.429L806.248 472.773C771.132 475.641 727.423 479.173 694.057 490.896C687.936 493.142 681.943 495.738 676.107 498.673C662.644 505.142 650.101 511.221 633.295 509.661C609.982 507.505 591.111 497.709 571.119 487.34C565.15 484.22 558.98 481.032 552.675 478.164C546.369 475.297 541.119 472.911 536.474 471.144C504.275 458.917 476.968 459.674 447.956 473.783C445.42 474.998 442.885 476.077 440.372 477.155C403.057 492.318 393.633 489.795 375.907 471.488C355.219 450.039 337.762 443.157 322.818 450.407C306.169 458.504 298.854 480.848 294.793 496.906V497.181C292.98 505.367 290.464 513.374 287.276 521.108C282.968 530.651 277.785 537.166 270.963 541.548C262.661 546.916 252.026 548.659 241.794 550.334C239.169 550.77 236.588 551.205 234.075 551.664C227.86 552.857 220.859 554.578 215.968 558.363C211.954 561.64 208.909 565.992 207.172 570.934C205.638 574.634 203.736 578.162 201.495 581.463C199.768 583.982 197.765 586.291 195.526 588.346C179.259 603.165 153.791 614.268 130.994 601.031C115.624 592.039 104.405 577.747 93.6795 563.937C87.494 555.501 80.6745 547.57 73.2832 540.217C62.0641 529.596 47.0081 516.405 31.5033 508.606C23.3583 504.476 16.8961 502.733 11.1968 503.123C7.0972 503.374 3.20013 505.031 0.134826 507.826V509.592Z" fill="url(#paint15_linear_0_201)"/>
<path style="mix-blend-mode:screen" opacity="0.7" d="M0.134937 491.836C3.14165 487.799 6.26053 484.22 11.8925 483.211C17.5245 482.202 24.1438 483.739 31.885 487.937C47.1205 496.149 61.4585 511.381 72.2737 523.723C78.3925 531.022 84.0865 538.682 89.3266 546.663C99.9174 562.309 111.136 578.481 127.471 588.667C150.65 603.234 178.832 594.104 194.786 577.564C197.048 575.222 198.974 572.565 200.508 569.672C202.688 565.405 204.281 560.851 205.242 556.138C206.611 550.54 207.8 545.7 211.974 541.249C215.564 537.418 220.792 534.826 229.453 532.555C232.415 531.775 235.422 531.11 238.608 530.399C248.66 528.105 259.049 525.811 267.082 520.007C273.97 514.96 278.952 507.711 282.788 497.067C285.32 489.28 287.256 481.303 288.577 473.209L288.914 471.466C293.738 446.231 302.826 430.655 315.84 425.149C338.816 415.492 360.492 443.295 366.595 452.058C383.536 476.375 396.617 483.716 433.707 466.258C436.243 465.065 438.801 463.735 441.359 462.29C471.336 445.337 498.06 442.676 530.73 453.32C535.666 454.926 541.119 457.036 547.424 459.72C554.649 462.84 561.695 466.258 568.493 469.585C588.419 479.288 607.222 488.441 630.557 490.093C646.735 491.263 659.929 485.941 672.719 480.917C677.969 478.806 683.422 476.604 689.054 474.884C724.057 464.056 767.049 460.523 796.353 458.826L800.706 458.573C810.832 458.286 820.921 457.204 830.885 455.339C831.491 455.339 832.097 455.063 832.703 454.926C842.047 452.511 851.181 449.312 860.01 445.36L863.062 444.098C871.779 440.562 880.791 437.836 889.987 435.954C893.914 435.106 897.886 434.348 902.082 433.66C922.545 429.738 943.704 425.7 957.661 413.014C970.495 401.406 974.108 383.765 977.855 365.092C980.727 351.076 983.689 336.578 990.802 323.8C994.148 318.109 997.985 312.734 1002.27 307.742C1007.1 302.086 1011.59 296.141 1015.73 289.94C1019.2 284.797 1021.23 278.786 1021.61 272.552C1021.8 265.729 1021.26 258.905 1019.99 252.204C1019.77 250.552 1019.52 248.855 1019.28 247.088C1017.82 236.444 1016.34 216.234 1022.84 200.657C1025.05 195.172 1028.48 190.287 1032.85 186.389C1034.53 184.508 1036.31 182.649 1038.08 180.768V178.818C1035.97 181.021 1033.93 183.223 1031.95 185.425C1027.44 189.437 1023.9 194.472 1021.63 200.13C1014.9 216.004 1016.49 236.49 1017.97 247.272C1018.22 249.038 1018.47 250.736 1018.69 252.41C1019.94 259.006 1020.47 265.722 1020.29 272.437C1019.92 278.448 1017.97 284.245 1014.63 289.206C1010.54 295.349 1006.1 301.246 1001.35 306.87C997.013 311.902 993.131 317.322 989.747 323.066C982.522 335.912 979.538 350.594 976.644 364.633C972.874 382.986 969.306 400.512 956.786 411.821C943.098 424.209 922.119 428.223 901.857 432.1C897.639 432.926 893.645 433.683 889.718 434.394C880.417 436.295 871.3 439.044 862.478 442.607L859.449 443.892C850.683 447.828 841.608 451.005 832.321 453.389L830.549 453.802C820.649 455.631 810.628 456.697 800.571 456.99L796.218 457.243C766.847 458.963 723.743 462.519 688.515 473.301C682.838 475.067 677.296 477.269 672.068 479.38C658.852 484.702 646.354 489.703 630.49 488.556C607.401 486.904 588.71 477.797 568.92 468.162C562.188 464.836 555.031 461.28 547.783 458.275C541.433 455.568 535.958 453.458 530.977 451.829C497.925 441.047 470.888 443.754 440.574 461.005C438.038 462.45 435.503 463.758 433.012 464.928C397.268 481.766 384.792 475.962 367.515 451.164C361.277 442.194 339.063 413.725 315.167 423.773C301.704 429.462 292.28 445.383 287.388 471.099L287.052 472.842C285.736 480.865 283.816 488.773 281.307 496.493C277.56 506.793 272.736 513.836 266.072 518.722C258.264 524.434 247.987 526.705 238.069 528.908C235.018 529.573 231.854 530.261 228.892 531.064C219.917 533.358 214.554 536.111 210.784 540.24C206.297 544.966 205.04 550.196 203.694 555.748C202.759 560.347 201.211 564.793 199.094 568.961C197.601 571.738 195.744 574.292 193.574 576.554C178.473 592.314 150.358 601.49 127.988 587.451C111.899 577.334 100.86 561.276 90.2017 545.769C84.9806 537.791 79.309 530.131 73.216 522.829C62.356 510.395 47.9282 495.071 32.5132 486.744C24.4803 482.408 17.6592 480.802 11.6682 481.88C6.9853 482.852 2.852 485.639 0.134937 489.657V491.836Z" fill="url(#paint16_linear_0_201)"/>
<path style="mix-blend-mode:screen" opacity="0.7" d="M12.139 460.684C6.23781 462.358 2.93938 466.946 0.134614 471.879V474.585C3.20864 468.942 6.28267 463.735 12.4756 461.968C18.6685 460.202 25.1307 461.601 32.8494 466.075C44.607 472.819 57.8007 486.331 72.0714 506.22C76.9404 513.102 81.2935 520.236 85.9157 527.898C96.5065 545.493 107.479 563.708 124.689 575.361C147.755 590.984 178.675 583.138 193.058 566.002C195.264 563.393 197.051 560.443 198.353 557.262C200.264 552.113 201.406 546.7 201.742 541.204C202.46 534.712 203.11 528.587 207.082 523.127C210.492 518.539 215.878 515.052 224.539 512.161C227.837 511.06 231.405 510.074 234.838 509.11C244.643 506.403 254.763 503.605 262.392 497.365C269.123 491.813 273.813 483.968 276.977 472.681C278.904 464.969 280.299 457.127 281.15 449.214L281.599 445.887C284 427.971 290.574 405.237 308.211 398.837C328.405 391.519 347.702 412.051 358.18 431.871C373.887 461.693 389.594 474.104 426.46 454.329C428.973 452.999 431.531 451.485 434.089 449.741C464.919 429.852 492.204 425.264 525.345 434.44C530.618 435.885 536.272 437.79 542.622 440.244C550.745 443.41 558.598 447.011 566.182 450.498C585.95 459.674 604.641 468.162 627.82 469.263C643.19 469.997 656.406 465.822 669.196 461.762C673.863 460.294 678.687 458.757 683.579 457.472C716.579 449.271 750.333 444.65 784.281 443.685L793.795 443.433C801.514 443.249 809.502 443.066 816.861 442.4L818.634 442.217C829.115 441.234 839.54 439.703 849.868 437.629C858.349 435.931 867.347 434.578 876.569 433.247C900.466 429.783 924.991 425.104 938.992 409.298C949.785 397.117 951.804 380.531 953.914 363.005C955.731 348.117 957.593 332.701 965.133 319.602C968.463 314.141 972.418 309.105 976.913 304.599C979.538 301.8 982.029 299.254 984.34 296.868C987.189 293.932 989.882 291.179 992.283 288.541C997.058 283.708 1000.65 277.789 1002.76 271.267C1005.01 263.628 1004.89 254.865 1004.44 245.024C1003.73 229.31 1003.75 212.907 1008.62 199.671C1010.58 194.209 1013.57 189.191 1017.41 184.898C1023.82 176.776 1030.76 169.111 1038.19 161.957V160.076C1030.39 167.539 1023.11 175.549 1016.4 184.049C1012.48 188.472 1009.43 193.629 1007.43 199.235C1002.47 212.701 1002.45 229.241 1003.19 245.115C1003.61 254.819 1003.79 263.467 1001.55 270.877C999.494 277.209 996.003 282.955 991.363 287.646C988.984 290.262 986.292 293.014 983.442 295.951C981.198 298.245 978.64 300.883 975.993 303.704C971.442 308.293 967.435 313.413 964.056 318.96C956.314 332.288 954.43 347.841 952.612 362.867C950.503 380.187 948.528 396.543 938.005 408.403C924.295 423.888 900.04 428.522 876.39 431.94C867.145 433.27 858.125 434.624 849.621 436.321C839.329 438.384 828.942 439.915 818.499 440.909L816.749 441.07C809.434 441.735 801.469 441.942 793.75 442.102C790.586 442.102 787.4 442.263 784.236 442.378C750.191 443.383 716.346 448.066 683.264 456.348C678.35 457.656 673.504 459.17 668.837 460.661C655.553 464.859 643.055 468.827 627.909 468.116C604.978 467.015 586.399 458.481 566.743 449.443C559.137 445.956 551.283 442.355 543.093 439.166C536.721 436.711 531.022 434.784 525.726 433.316C492.181 424.14 464.582 428.728 433.416 448.801C430.88 450.43 428.345 451.944 425.876 453.251C389.975 472.521 374.74 460.408 359.37 431.343C348.644 411.064 328.697 390.051 307.762 397.667C289.497 404.297 282.743 427.489 280.298 445.841L279.849 449.191C278.996 457.034 277.609 464.806 275.698 472.452C272.691 483.394 268.203 491.034 261.472 496.402C254.067 502.481 244.082 505.233 234.411 507.872C230.956 508.812 227.388 509.799 224.045 510.923C218.032 512.941 210.582 516.061 205.937 522.393C201.764 528.151 201.068 534.459 200.35 541.135C200.008 546.472 198.897 551.729 197.052 556.734C195.784 559.77 194.074 562.593 191.981 565.107C177.957 581.808 147.823 589.447 125.34 574.283C108.354 562.813 97.4714 544.713 86.9479 527.233C82.4602 519.892 77.9726 512.276 73.0586 505.486C58.7431 485.436 45.4148 471.672 33.5001 464.79C25.4673 460.202 18.4666 458.871 12.139 460.684Z" fill="url(#paint17_linear_0_201)"/>
<path style="mix-blend-mode:screen" opacity="0.7" d="M0.134721 43.0816C2.81321 41.6702 5.32725 39.9541 7.62908 37.9659C19.0501 28.1246 22.1691 14.4752 23.0891 0.0917345H21.7652C20.8677 14.154 17.7936 27.4364 6.79888 36.9336C4.71347 38.693 2.45798 40.2302 0.0674088 41.5216L0.134721 43.0816Z" fill="url(#paint18_linear_0_201)"/>
<path style="mix-blend-mode:screen" opacity="0.7" d="M0.134886 64.5994C6.81293 65.006 13.5135 64.7757 20.1498 63.9113C28.0066 62.9681 35.4466 59.7888 41.623 54.7352C57.3297 41.4987 56.6117 20.6691 55.243 0.0917503H53.9192C55.3328 21.1508 55.9386 40.8564 40.7704 53.7029C34.7771 58.5928 27.5636 61.6684 19.9478 62.5808C13.3776 63.4264 6.74512 63.6491 0.134886 63.246V64.5994Z" fill="url(#paint19_linear_0_201)"/>
<path style="mix-blend-mode:screen" opacity="0.7" d="M34.5101 443.043C26.5221 438.157 19.1399 436.941 12.6104 439.464C6.08089 441.988 2.93955 448.135 0.134783 454.536V457.908L0.336719 457.426C3.43318 450.177 6.37261 443.341 13.0592 440.772C19.297 438.363 26.0957 439.51 33.8369 444.236C50.5757 454.467 66.0581 478.806 71.9817 488.785C75.6616 495.048 79.1844 501.77 82.595 508.262C93.0063 528.174 103.754 548.751 121.974 562.033C143.313 577.587 177.105 573.893 191.532 554.44C193.665 551.546 195.304 548.304 196.379 544.851C197.943 538.926 198.624 532.793 198.398 526.66C198.398 518.975 198.578 511.703 202.347 505.188C205.601 499.613 210.986 495.507 219.804 491.928C223.372 490.483 227.231 489.221 231.023 487.983C240.649 484.817 250.59 481.536 257.949 474.884C264.681 468.782 268.921 460.363 271.412 448.411C272.79 440.83 273.697 433.168 274.127 425.471C274.239 423.819 274.374 422.144 274.509 420.493C275.496 408.243 280.006 379.2 300.739 372.685C322.302 365.941 340.701 389.569 349.946 411.844C359.19 434.119 369.175 446.576 381.359 450.682C391.95 454.261 404.403 451.599 419.504 442.584C421.95 441.116 424.508 439.418 427.133 437.514C458.659 414.574 486.527 408.059 520.274 415.836C526.346 417.245 532.338 418.991 538.224 421.066C547.199 424.232 555.816 427.948 564.118 431.573C583.819 440.129 602.442 448.227 625.509 448.732C640.722 449.076 654.678 445.887 668.141 442.813C671.597 442.01 675.097 441.208 678.62 440.519C702.18 435.541 737.542 428.889 772.546 428.705C782.733 428.705 793.279 429.095 803.174 429.577H804.902L815.291 430.15C822.673 430.563 829.651 430.976 837.011 431.022C844.887 431.022 854.064 431.022 863.398 430.426C882.47 429.095 907.87 423.681 920.57 405.513C929.546 392.712 930.107 376.149 930.69 360.137C931.229 344.607 931.812 328.549 939.665 315.266C942.977 310.007 947.038 305.283 951.715 301.25C955.843 297.488 959.972 294.207 963.943 291.041C965.716 289.642 967.444 288.266 969.104 286.889C975.23 282.287 980.357 276.437 984.16 269.707C988.468 261.334 989.456 251.791 989.882 242.73C989.994 240.206 990.084 237.637 990.174 235.022C990.578 222.634 991.026 209.788 994.661 198.478C996.41 193.016 998.96 187.857 1002.22 183.177C1011.58 168.725 1024.93 155.993 1038.57 143.812V142.022C1024.57 154.502 1010.77 167.532 1001.15 182.42C997.651 187.136 994.889 192.374 992.956 197.95C989.254 209.42 988.827 222.405 988.468 234.884C988.468 237.499 988.289 240.069 988.177 242.569C987.773 251.493 986.808 260.921 982.612 268.973C978.897 275.546 973.884 281.257 967.893 285.742C966.232 287.119 964.504 288.472 962.754 289.894C958.76 293.06 954.632 296.364 950.458 300.149C945.689 304.272 941.545 309.096 938.162 314.463C930.017 328.044 929.456 344.286 928.895 360C928.312 376.539 927.751 392.116 919.045 404.641C906.636 422.374 881.618 427.581 862.949 429.003C853.66 429.646 844.505 429.646 836.674 429.6C829.337 429.6 822.381 429.141 814.999 428.705C811.611 428.522 808.155 428.315 804.588 428.155H802.882C792.965 427.696 782.441 427.237 772.187 427.283C737.071 427.466 701.596 434.165 677.947 439.12C674.424 439.877 670.923 440.68 667.446 441.414C653.467 444.603 640.273 447.631 625.217 447.287C602.397 446.782 583.908 438.753 564.32 430.242C555.995 426.618 547.379 422.878 538.336 419.713C532.453 417.617 526.46 415.856 520.386 414.436C486.213 406.568 458.053 413.106 426.146 436.321C423.543 438.202 421.007 439.9 418.629 441.322C403.954 450.154 391.86 452.792 381.628 449.305C369.916 445.337 360.2 433.247 351.09 411.225C341.644 388.445 322.683 364.312 300.29 371.286C278.794 377.939 274.127 407.784 273.117 420.286C272.983 421.938 272.871 423.612 272.736 425.287C272.307 432.938 271.408 440.554 270.043 448.09C267.643 459.766 263.491 467.956 257.007 473.874C249.872 480.321 240.066 483.555 230.575 486.675C226.805 487.914 222.923 489.198 219.356 490.644C213.23 493.144 205.623 496.975 201.27 504.408C197.299 511.29 197.209 518.676 197.119 526.568C197.338 532.56 196.68 538.553 195.167 544.346C194.143 547.654 192.572 550.758 190.523 553.522C176.544 572.471 143.649 576.004 122.827 560.84C104.876 547.764 94.1731 527.302 83.8291 507.55C80.4185 501.012 76.8957 494.291 73.1934 488.005C65.6991 475.526 50.8899 453.045 34.5101 443.043Z" fill="url(#paint20_linear_0_201)"/>
<path style="mix-blend-mode:screen" opacity="0.7" d="M5.43006 199.189C3.92474 195.327 2.15519 191.579 0.134628 187.971V190.724C1.66303 193.624 3.02656 196.611 4.21838 199.671C13.418 223.804 8.70599 249.222 0.134628 270.487V273.951C9.49133 251.86 15.2355 224.836 5.43006 199.189Z" fill="url(#paint21_linear_0_201)"/>
<path style="mix-blend-mode:screen" opacity="0.7" d="M72.9911 470.64C70.0742 464.584 46.0653 416.34 21.3834 416.34C18.527 416.343 15.7068 416.993 13.1261 418.244C6.05812 421.617 2.98405 429.715 0.17928 437.767V441.85C0.448538 441.024 0.740245 440.221 1.03194 439.418C3.99378 430.907 6.77614 422.855 13.6871 419.552C35.0707 409.344 60.2911 447.287 71.8468 471.328C74.3823 476.65 76.8729 482.202 79.2738 487.57C89.3934 510.189 99.872 533.587 119.191 548.705C126.679 554.187 135.33 557.779 144.437 559.186C153.543 560.594 162.846 559.777 171.584 556.803C183.611 552.398 191.667 543.727 194.247 532.44C195.425 525.765 195.652 518.95 194.92 512.207C194.382 503.261 193.843 494.819 197.478 487.157C202.886 475.801 214.598 471.351 227.007 466.648C236.453 463.07 246.214 459.353 253.214 452.334C266.094 439.464 266.543 419.85 266.991 400.879C266.991 398.86 266.991 396.841 267.149 394.869C267.463 384.981 270.267 352.223 292.997 346.281C315.727 340.34 333.386 366.927 341.441 391.611C350.574 419.139 362.039 434.784 376.467 439.166C388.763 442.905 403.258 438.134 419.571 424.989C457.536 394.433 489.331 387.872 533.041 401.59C542.846 404.687 552.113 408.472 561.066 412.211C580.565 420.286 598.986 427.902 621.649 427.902H622.322C645.142 427.742 667.198 424.117 688.56 420.584C720.983 415.216 754.505 409.688 790.204 416.845C795.993 417.992 801.85 419.414 807.527 420.791C820.99 424.071 835.103 427.466 849.262 427.673C867.459 427.833 890.772 421.181 901.206 401.796C908.431 388.331 907.601 372.295 906.816 356.788C905.985 340.73 905.133 324.236 913.367 310.908C919.471 301.089 929.613 294.85 939.418 288.747C948.708 283.012 958.289 277.094 964.706 268.101C973.681 255.668 974.826 239.931 975.925 224.722C976.351 215.441 977.644 206.223 979.784 197.193C987.593 168.587 1011.8 149.019 1035.18 130.346L1038.03 128.052V126.331L1034.38 129.291C1010.91 148.216 986.561 167.784 978.64 196.803C976.474 205.9 975.159 215.187 974.713 224.538C973.479 240.275 972.335 255.117 963.674 267.23C957.414 275.993 947.967 281.843 938.767 287.509C928.827 293.657 918.573 300.011 912.268 310.105C903.831 323.708 904.684 340.477 905.537 356.696C906.322 372.02 907.13 387.849 900.084 400.971C890.099 419.575 867.863 426.205 850.092 426.205H849.351C835.328 426.044 821.393 422.672 807.886 419.323C802.209 417.946 796.33 416.524 790.519 415.354C754.618 408.151 720.96 413.725 688.403 419.093C667.109 422.603 645.097 426.251 622.389 426.388H621.716C599.278 426.388 580.924 418.818 561.56 410.812C552.584 407.096 543.273 403.242 533.422 400.145C489.847 386.381 456.616 393.263 418.763 423.773C402.81 436.62 388.696 441.322 376.849 437.721C362.847 433.477 351.673 418.199 342.675 391.015C334.351 365.78 316.266 338.665 292.661 344.813C269.056 350.961 266.161 384.522 265.735 394.662C265.735 396.635 265.735 398.654 265.578 400.672C265.151 419.369 264.68 438.707 252.115 451.141C245.383 458.023 235.69 461.624 226.378 465.157C213.701 469.974 201.696 474.494 196.132 486.354C192.34 494.314 192.901 503.329 193.417 512.07C194.154 518.672 193.942 525.35 192.788 531.89C190.32 542.741 182.557 551.045 170.956 555.289C162.429 558.196 153.349 558.997 144.46 557.626C135.572 556.254 127.128 552.749 119.82 547.397C100.747 532.486 90.3583 509.248 80.2835 486.767C78.0173 481.536 75.5266 475.985 72.9911 470.64Z" fill="url(#paint22_linear_0_201)"/>
<path style="mix-blend-mode:screen" opacity="0.7" d="M0.134917 76.3218C8.02911 76.4594 15.9064 77.1184 23.7174 78.2946C42.386 80.5886 61.6604 83.112 75.5945 71.4125C92.8494 57.075 89.8203 34.0431 86.6116 9.68067C86.1853 6.46905 85.7589 3.23456 85.3775 4.98495e-06H84.0536C84.4351 3.28044 84.8614 6.58379 85.2878 9.86423C88.4515 33.8367 91.4358 56.5015 74.7643 70.3803C61.3014 81.6209 42.2738 79.2122 23.8969 76.8723C16.0282 75.6764 8.08948 75.025 0.134917 74.9224V76.3218Z" fill="url(#paint23_linear_0_201)"/>
<defs>
<linearGradient id="paint0_linear_0_201" x1="27010.5" y1="-864.405" x2="-74882.7" y2="-864.405" gradientUnits="userSpaceOnUse">
<stop stop-color="#6F6F6F"/>
<stop offset="0.11" stop-color="#5D5D5D"/>
<stop offset="0.22" stop-color="#363636"/>
<stop offset="0.34" stop-color="#131313"/>
<stop offset="0.4" stop-color="#060606"/>
<stop offset="0.47" stop-color="#0D0D0D"/>
<stop offset="0.56" stop-color="#1F1F1F"/>
<stop offset="0.66" stop-color="#3D3D3D"/>
<stop offset="0.75" stop-color="#5D5D5D"/>
<stop offset="1" stop-color="#6F6F6F"/>
</linearGradient>
<linearGradient id="paint1_linear_0_201" x1="58378.9" y1="-1433.51" x2="-175723" y2="-1433.51" gradientUnits="userSpaceOnUse">
<stop stop-color="#6F6F6F"/>
<stop offset="0.11" stop-color="#5D5D5D"/>
<stop offset="0.22" stop-color="#363636"/>
<stop offset="0.34" stop-color="#131313"/>
<stop offset="0.4" stop-color="#060606"/>
<stop offset="0.47" stop-color="#0D0D0D"/>
<stop offset="0.56" stop-color="#1F1F1F"/>
<stop offset="0.66" stop-color="#3D3D3D"/>
<stop offset="0.75" stop-color="#5D5D5D"/>
<stop offset="1" stop-color="#6F6F6F"/>
</linearGradient>
<linearGradient id="paint2_linear_0_201" x1="62730.6" y1="-2041.42" x2="-201223" y2="-2041.42" gradientUnits="userSpaceOnUse">
<stop stop-color="#6F6F6F"/>
<stop offset="0.11" stop-color="#5D5D5D"/>
<stop offset="0.22" stop-color="#363636"/>
<stop offset="0.34" stop-color="#131313"/>
<stop offset="0.4" stop-color="#060606"/>
<stop offset="0.47" stop-color="#0D0D0D"/>
<stop offset="0.56" stop-color="#1F1F1F"/>
<stop offset="0.66" stop-color="#3D3D3D"/>
<stop offset="0.75" stop-color="#5D5D5D"/>
<stop offset="1" stop-color="#6F6F6F"/>
</linearGradient>
<linearGradient id="paint3_linear_0_201" x1="110203" y1="-2791.01" x2="-379936" y2="-2791.01" gradientUnits="userSpaceOnUse">
<stop stop-color="#6F6F6F"/>
<stop offset="0.11" stop-color="#5D5D5D"/>
<stop offset="0.22" stop-color="#363636"/>
<stop offset="0.34" stop-color="#131313"/>
<stop offset="0.4" stop-color="#060606"/>
<stop offset="0.47" stop-color="#0D0D0D"/>
<stop offset="0.56" stop-color="#1F1F1F"/>
<stop offset="0.66" stop-color="#3D3D3D"/>
<stop offset="0.75" stop-color="#5D5D5D"/>
<stop offset="1" stop-color="#6F6F6F"/>
</linearGradient>
<linearGradient id="paint4_linear_0_201" x1="116435" y1="-4024.86" x2="-430246" y2="-4024.86" gradientUnits="userSpaceOnUse">
<stop stop-color="#6F6F6F"/>
<stop offset="0.11" stop-color="#5D5D5D"/>
<stop offset="0.22" stop-color="#363636"/>
<stop offset="0.34" stop-color="#131313"/>
<stop offset="0.4" stop-color="#060606"/>
<stop offset="0.47" stop-color="#0D0D0D"/>
<stop offset="0.56" stop-color="#1F1F1F"/>
<stop offset="0.66" stop-color="#3D3D3D"/>
<stop offset="0.75" stop-color="#5D5D5D"/>
<stop offset="1" stop-color="#6F6F6F"/>
</linearGradient>
<linearGradient id="paint5_linear_0_201" x1="109869" y1="-6171.65" x2="-438321" y2="-6171.65" gradientUnits="userSpaceOnUse">
<stop stop-color="#6F6F6F"/>
<stop offset="0.11" stop-color="#5D5D5D"/>
<stop offset="0.22" stop-color="#363636"/>
<stop offset="0.34" stop-color="#131313"/>
<stop offset="0.4" stop-color="#060606"/>
<stop offset="0.47" stop-color="#0D0D0D"/>
<stop offset="0.56" stop-color="#1F1F1F"/>
<stop offset="0.66" stop-color="#3D3D3D"/>
<stop offset="0.75" stop-color="#5D5D5D"/>
<stop offset="1" stop-color="#6F6F6F"/>
</linearGradient>
<linearGradient id="paint6_linear_0_201" x1="122333" y1="-8879.59" x2="-533716" y2="-8879.59" gradientUnits="userSpaceOnUse">
<stop stop-color="#6F6F6F"/>
<stop offset="0.11" stop-color="#5D5D5D"/>
<stop offset="0.22" stop-color="#363636"/>
<stop offset="0.34" stop-color="#131313"/>
<stop offset="0.4" stop-color="#060606"/>
<stop offset="0.47" stop-color="#0D0D0D"/>
<stop offset="0.56" stop-color="#1F1F1F"/>
<stop offset="0.66" stop-color="#3D3D3D"/>
<stop offset="0.75" stop-color="#5D5D5D"/>
<stop offset="1" stop-color="#6F6F6F"/>
</linearGradient>
<linearGradient id="paint7_linear_0_201" x1="129770" y1="-12108.3" x2="-613576" y2="-12108.3" gradientUnits="userSpaceOnUse">
<stop stop-color="#6F6F6F"/>
<stop offset="0.11" stop-color="#5D5D5D"/>
<stop offset="0.22" stop-color="#363636"/>
<stop offset="0.34" stop-color="#131313"/>
<stop offset="0.4" stop-color="#060606"/>
<stop offset="0.47" stop-color="#0D0D0D"/>
<stop offset="0.56" stop-color="#1F1F1F"/>
<stop offset="0.66" stop-color="#3D3D3D"/>
<stop offset="0.75" stop-color="#5D5D5D"/>
<stop offset="1" stop-color="#6F6F6F"/>
</linearGradient>
<linearGradient id="paint8_linear_0_201" x1="120682" y1="-13851" x2="-606357" y2="-13851" gradientUnits="userSpaceOnUse">
<stop stop-color="#6F6F6F"/>
<stop offset="0.11" stop-color="#5D5D5D"/>
<stop offset="0.22" stop-color="#363636"/>
<stop offset="0.34" stop-color="#131313"/>
<stop offset="0.4" stop-color="#060606"/>
<stop offset="0.47" stop-color="#0D0D0D"/>
<stop offset="0.56" stop-color="#1F1F1F"/>
<stop offset="0.66" stop-color="#3D3D3D"/>
<stop offset="0.75" stop-color="#5D5D5D"/>
<stop offset="1" stop-color="#6F6F6F"/>
</linearGradient>
<linearGradient id="paint9_linear_0_201" x1="113413" y1="-14145.5" x2="-592985" y2="-14145.5" gradientUnits="userSpaceOnUse">
<stop stop-color="#6F6F6F"/>
<stop offset="0.11" stop-color="#5D5D5D"/>
<stop offset="0.22" stop-color="#363636"/>
<stop offset="0.34" stop-color="#131313"/>
<stop offset="0.4" stop-color="#060606"/>
<stop offset="0.47" stop-color="#0D0D0D"/>
<stop offset="0.56" stop-color="#1F1F1F"/>
<stop offset="0.66" stop-color="#3D3D3D"/>
<stop offset="0.75" stop-color="#5D5D5D"/>
<stop offset="1" stop-color="#6F6F6F"/>
</linearGradient>
<linearGradient id="paint10_linear_0_201" x1="106235" y1="-14390.1" x2="-580296" y2="-14390.1" gradientUnits="userSpaceOnUse">
<stop stop-color="#6F6F6F"/>
<stop offset="0.11" stop-color="#5D5D5D"/>
<stop offset="0.22" stop-color="#363636"/>
<stop offset="0.34" stop-color="#131313"/>
<stop offset="0.4" stop-color="#060606"/>
<stop offset="0.47" stop-color="#0D0D0D"/>
<stop offset="0.56" stop-color="#1F1F1F"/>
<stop offset="0.66" stop-color="#3D3D3D"/>
<stop offset="0.75" stop-color="#5D5D5D"/>
<stop offset="1" stop-color="#6F6F6F"/>
</linearGradient>
<linearGradient id="paint11_linear_0_201" x1="99151" y1="-14744.2" x2="-568415" y2="-14744.2" gradientUnits="userSpaceOnUse">
<stop stop-color="#6F6F6F"/>
<stop offset="0.11" stop-color="#5D5D5D"/>
<stop offset="0.22" stop-color="#363636"/>
<stop offset="0.34" stop-color="#131313"/>
<stop offset="0.4" stop-color="#060606"/>
<stop offset="0.47" stop-color="#0D0D0D"/>
<stop offset="0.56" stop-color="#1F1F1F"/>
<stop offset="0.66" stop-color="#3D3D3D"/>
<stop offset="0.75" stop-color="#5D5D5D"/>
<stop offset="1" stop-color="#6F6F6F"/>
</linearGradient>
<linearGradient id="paint12_linear_0_201" x1="92160.8" y1="-15623.7" x2="-556763" y2="-15623.7" gradientUnits="userSpaceOnUse">
<stop stop-color="#6F6F6F"/>
<stop offset="0.11" stop-color="#5D5D5D"/>
<stop offset="0.22" stop-color="#363636"/>
<stop offset="0.34" stop-color="#131313"/>
<stop offset="0.4" stop-color="#060606"/>
<stop offset="0.47" stop-color="#0D0D0D"/>
<stop offset="0.56" stop-color="#1F1F1F"/>
<stop offset="0.66" stop-color="#3D3D3D"/>
<stop offset="0.75" stop-color="#5D5D5D"/>
<stop offset="1" stop-color="#6F6F6F"/>
</linearGradient>
<linearGradient id="paint13_linear_0_201" x1="85371.8" y1="-18461.2" x2="-545220" y2="-18461.2" gradientUnits="userSpaceOnUse">
<stop stop-color="#6F6F6F"/>
<stop offset="0.11" stop-color="#5D5D5D"/>
<stop offset="0.22" stop-color="#363636"/>
<stop offset="0.34" stop-color="#131313"/>
<stop offset="0.4" stop-color="#060606"/>
<stop offset="0.47" stop-color="#0D0D0D"/>
<stop offset="0.56" stop-color="#1F1F1F"/>
<stop offset="0.66" stop-color="#3D3D3D"/>
<stop offset="0.75" stop-color="#5D5D5D"/>
<stop offset="1" stop-color="#6F6F6F"/>
</linearGradient>
<linearGradient id="paint14_linear_0_201" x1="78745.3" y1="-26862.4" x2="-533799" y2="-26862.4" gradientUnits="userSpaceOnUse">
<stop stop-color="#6F6F6F"/>
<stop offset="0.11" stop-color="#5D5D5D"/>
<stop offset="0.22" stop-color="#363636"/>
<stop offset="0.34" stop-color="#131313"/>
<stop offset="0.4" stop-color="#060606"/>
<stop offset="0.47" stop-color="#0D0D0D"/>
<stop offset="0.56" stop-color="#1F1F1F"/>
<stop offset="0.66" stop-color="#3D3D3D"/>
<stop offset="0.75" stop-color="#5D5D5D"/>
<stop offset="1" stop-color="#6F6F6F"/>
</linearGradient>
<linearGradient id="paint15_linear_0_201" x1="74134.9" y1="-34457.7" x2="-522431" y2="-34457.7" gradientUnits="userSpaceOnUse">
<stop stop-color="#6F6F6F"/>
<stop offset="0.11" stop-color="#5D5D5D"/>
<stop offset="0.22" stop-color="#363636"/>
<stop offset="0.34" stop-color="#131313"/>
<stop offset="0.4" stop-color="#060606"/>
<stop offset="0.47" stop-color="#0D0D0D"/>
<stop offset="0.56" stop-color="#1F1F1F"/>
<stop offset="0.66" stop-color="#3D3D3D"/>
<stop offset="0.75" stop-color="#5D5D5D"/>
<stop offset="1" stop-color="#6F6F6F"/>
</linearGradient>
<linearGradient id="paint16_linear_0_201" x1="70237.8" y1="-56843.3" x2="-511084" y2="-56843.3" gradientUnits="userSpaceOnUse">
<stop stop-color="#6F6F6F"/>
<stop offset="0.11" stop-color="#5D5D5D"/>
<stop offset="0.22" stop-color="#363636"/>
<stop offset="0.34" stop-color="#131313"/>
<stop offset="0.4" stop-color="#060606"/>
<stop offset="0.47" stop-color="#0D0D0D"/>
<stop offset="0.56" stop-color="#1F1F1F"/>
<stop offset="0.66" stop-color="#3D3D3D"/>
<stop offset="0.75" stop-color="#5D5D5D"/>
<stop offset="1" stop-color="#6F6F6F"/>
</linearGradient>
<linearGradient id="paint17_linear_0_201" x1="66332" y1="-60641.9" x2="-499907" y2="-60641.9" gradientUnits="userSpaceOnUse">
<stop stop-color="#6F6F6F"/>
<stop offset="0.11" stop-color="#5D5D5D"/>
<stop offset="0.22" stop-color="#363636"/>
<stop offset="0.34" stop-color="#131313"/>
<stop offset="0.4" stop-color="#060606"/>
<stop offset="0.47" stop-color="#0D0D0D"/>
<stop offset="0.56" stop-color="#1F1F1F"/>
<stop offset="0.66" stop-color="#3D3D3D"/>
<stop offset="0.75" stop-color="#5D5D5D"/>
<stop offset="1" stop-color="#6F6F6F"/>
</linearGradient>
<linearGradient id="paint18_linear_0_201" x1="1471.15" y1="-12733.5" x2="-11086.7" y2="-12733.5" gradientUnits="userSpaceOnUse">
<stop stop-color="#6F6F6F"/>
<stop offset="0.11" stop-color="#5D5D5D"/>
<stop offset="0.22" stop-color="#363636"/>
<stop offset="0.34" stop-color="#131313"/>
<stop offset="0.4" stop-color="#060606"/>
<stop offset="0.47" stop-color="#0D0D0D"/>
<stop offset="0.56" stop-color="#1F1F1F"/>
<stop offset="0.66" stop-color="#3D3D3D"/>
<stop offset="0.75" stop-color="#5D5D5D"/>
<stop offset="1" stop-color="#6F6F6F"/>
</linearGradient>
<linearGradient id="paint19_linear_0_201" x1="3356.18" y1="-18859.4" x2="-26443.3" y2="-18859.4" gradientUnits="userSpaceOnUse">
<stop stop-color="#6F6F6F"/>
<stop offset="0.11" stop-color="#5D5D5D"/>
<stop offset="0.22" stop-color="#363636"/>
<stop offset="0.34" stop-color="#131313"/>
<stop offset="0.4" stop-color="#060606"/>
<stop offset="0.47" stop-color="#0D0D0D"/>
<stop offset="0.56" stop-color="#1F1F1F"/>
<stop offset="0.66" stop-color="#3D3D3D"/>
<stop offset="0.75" stop-color="#5D5D5D"/>
<stop offset="1" stop-color="#6F6F6F"/>
</linearGradient>
<linearGradient id="paint20_linear_0_201" x1="62493.3" y1="-64344.5" x2="-492406" y2="-64344.5" gradientUnits="userSpaceOnUse">
<stop stop-color="#6F6F6F"/>
<stop offset="0.11" stop-color="#5D5D5D"/>
<stop offset="0.22" stop-color="#363636"/>
<stop offset="0.34" stop-color="#131313"/>
<stop offset="0.4" stop-color="#060606"/>
<stop offset="0.47" stop-color="#0D0D0D"/>
<stop offset="0.56" stop-color="#1F1F1F"/>
<stop offset="0.66" stop-color="#3D3D3D"/>
<stop offset="0.75" stop-color="#5D5D5D"/>
<stop offset="1" stop-color="#6F6F6F"/>
</linearGradient>
<linearGradient id="paint21_linear_0_201" x1="586.802" y1="-17431.8" x2="-4918.22" y2="-17431.8" gradientUnits="userSpaceOnUse">
<stop stop-color="#6F6F6F"/>
<stop offset="0.11" stop-color="#5D5D5D"/>
<stop offset="0.22" stop-color="#363636"/>
<stop offset="0.34" stop-color="#131313"/>
<stop offset="0.4" stop-color="#060606"/>
<stop offset="0.47" stop-color="#0D0D0D"/>
<stop offset="0.56" stop-color="#1F1F1F"/>
<stop offset="0.66" stop-color="#3D3D3D"/>
<stop offset="0.75" stop-color="#5D5D5D"/>
<stop offset="1" stop-color="#6F6F6F"/>
</linearGradient>
<linearGradient id="paint22_linear_0_201" x1="58545.6" y1="-67533.9" x2="-490905" y2="-67533.9" gradientUnits="userSpaceOnUse">
<stop stop-color="#6F6F6F"/>
<stop offset="0.11" stop-color="#5D5D5D"/>
<stop offset="0.22" stop-color="#363636"/>
<stop offset="0.34" stop-color="#131313"/>
<stop offset="0.4" stop-color="#060606"/>
<stop offset="0.47" stop-color="#0D0D0D"/>
<stop offset="0.56" stop-color="#1F1F1F"/>
<stop offset="0.66" stop-color="#3D3D3D"/>
<stop offset="0.75" stop-color="#5D5D5D"/>
<stop offset="1" stop-color="#6F6F6F"/>
</linearGradient>
<linearGradient id="paint23_linear_0_201" x1="5018.16" y1="-23115.2" x2="-42076.2" y2="-23115.2" gradientUnits="userSpaceOnUse">
<stop stop-color="#6F6F6F"/>
<stop offset="0.11" stop-color="#5D5D5D"/>
<stop offset="0.22" stop-color="#363636"/>
<stop offset="0.34" stop-color="#131313"/>
<stop offset="0.4" stop-color="#060606"/>
<stop offset="0.47" stop-color="#0D0D0D"/>
<stop offset="0.56" stop-color="#1F1F1F"/>
<stop offset="0.66" stop-color="#3D3D3D"/>
<stop offset="0.75" stop-color="#5D5D5D"/>
<stop offset="1" stop-color="#6F6F6F"/>
</linearGradient>
</defs>
</svg>
